<svg width="261" height="42" viewBox="0 0 261 42" fill="none" xmlns="http://www.w3.org/2000/svg">
<path fill-rule="evenodd" clip-rule="evenodd" d="M21 42C32.598 42 42 32.598 42 21C42 9.40203 32.598 0 21 0C9.402 0 0 9.40203 0 21C0 32.598 9.402 42 21 42ZM27.5513 9.78269C27.8702 8.64996 26.7709 7.98014 25.767 8.69537L11.7528 18.6791C10.664 19.4547 10.8353 21 12.01 21H15.7003V20.9714H22.8926L17.0323 23.0392L14.4487 32.2174C14.1299 33.3501 15.229 34.0199 16.233 33.3046L30.2472 23.321C31.336 22.5454 31.1646 21 29.99 21H24.3937L27.5513 9.78269Z" fill="#006C83"/>
<path d="M63.262 15.672V25.5H60.868V15.672H63.262ZM69.7569 17.604C70.6716 17.604 71.3996 17.9027 71.9409 18.5C72.4916 19.088 72.7669 19.9 72.7669 20.936V25.5H70.3869V21.258C70.3869 20.7353 70.2516 20.3293 69.9809 20.04C69.7102 19.7507 69.3462 19.606 68.8889 19.606C68.4316 19.606 68.0676 19.7507 67.7969 20.04C67.5262 20.3293 67.3909 20.7353 67.3909 21.258V25.5H64.9969V17.688H67.3909V18.724C67.6336 18.3787 67.9602 18.108 68.3709 17.912C68.7816 17.7067 69.2436 17.604 69.7569 17.604ZM77.6085 25.612C76.9272 25.612 76.3205 25.4953 75.7885 25.262C75.2565 25.0287 74.8365 24.7113 74.5285 24.31C74.2205 23.8993 74.0478 23.442 74.0105 22.938H76.3765C76.4045 23.2087 76.5305 23.428 76.7545 23.596C76.9785 23.764 77.2538 23.848 77.5805 23.848C77.8792 23.848 78.1078 23.792 78.2665 23.68C78.4345 23.5587 78.5185 23.4047 78.5185 23.218C78.5185 22.994 78.4018 22.8307 78.1685 22.728C77.9352 22.616 77.5572 22.4947 77.0345 22.364C76.4745 22.2333 76.0078 22.098 75.6345 21.958C75.2612 21.8087 74.9392 21.58 74.6685 21.272C74.3978 20.9547 74.2625 20.53 74.2625 19.998C74.2625 19.55 74.3838 19.144 74.6265 18.78C74.8785 18.4067 75.2425 18.1127 75.7185 17.898C76.2038 17.6833 76.7778 17.576 77.4405 17.576C78.4205 17.576 79.1905 17.8187 79.7505 18.304C80.3198 18.7893 80.6465 19.4333 80.7305 20.236H78.5185C78.4812 19.9653 78.3598 19.7507 78.1545 19.592C77.9585 19.4333 77.6972 19.354 77.3705 19.354C77.0905 19.354 76.8758 19.41 76.7265 19.522C76.5772 19.6247 76.5025 19.7693 76.5025 19.956C76.5025 20.18 76.6192 20.348 76.8525 20.46C77.0952 20.572 77.4685 20.684 77.9725 20.796C78.5512 20.9453 79.0225 21.0947 79.3865 21.244C79.7505 21.384 80.0678 21.6173 80.3385 21.944C80.6185 22.2613 80.7632 22.6907 80.7725 23.232C80.7725 23.6893 80.6418 24.1 80.3805 24.464C80.1285 24.8187 79.7598 25.0987 79.2745 25.304C78.7985 25.5093 78.2432 25.612 77.6085 25.612ZM83.4411 16.876C83.0211 16.876 82.6758 16.7547 82.4051 16.512C82.1438 16.26 82.0131 15.952 82.0131 15.588C82.0131 15.2147 82.1438 14.9067 82.4051 14.664C82.6758 14.412 83.0211 14.286 83.4411 14.286C83.8518 14.286 84.1878 14.412 84.4491 14.664C84.7198 14.9067 84.8551 15.2147 84.8551 15.588C84.8551 15.952 84.7198 16.26 84.4491 16.512C84.1878 16.7547 83.8518 16.876 83.4411 16.876ZM84.6311 17.688V25.5H82.2371V17.688H84.6311ZM89.334 17.576C89.8847 17.576 90.3654 17.688 90.776 17.912C91.196 18.136 91.518 18.43 91.742 18.794V17.688H94.136V25.486C94.136 26.2047 93.9914 26.8533 93.702 27.432C93.422 28.02 92.988 28.4867 92.4 28.832C91.8214 29.1773 91.098 29.35 90.23 29.35C89.0727 29.35 88.1347 29.0747 87.416 28.524C86.6974 27.9827 86.2867 27.2453 86.184 26.312H88.55C88.6247 26.6107 88.802 26.844 89.082 27.012C89.362 27.1893 89.7074 27.278 90.118 27.278C90.6127 27.278 91.0047 27.1333 91.294 26.844C91.5927 26.564 91.742 26.1113 91.742 25.486V24.38C91.5087 24.744 91.1867 25.0427 90.776 25.276C90.3654 25.5 89.8847 25.612 89.334 25.612C88.69 25.612 88.1067 25.4487 87.584 25.122C87.0614 24.786 86.646 24.3147 86.338 23.708C86.0394 23.092 85.89 22.3827 85.89 21.58C85.89 20.7773 86.0394 20.0727 86.338 19.466C86.646 18.8593 87.0614 18.3927 87.584 18.066C88.1067 17.7393 88.69 17.576 89.334 17.576ZM91.742 21.594C91.742 20.9967 91.574 20.5253 91.238 20.18C90.9114 19.8347 90.51 19.662 90.034 19.662C89.558 19.662 89.152 19.8347 88.816 20.18C88.4894 20.516 88.326 20.9827 88.326 21.58C88.326 22.1773 88.4894 22.6533 88.816 23.008C89.152 23.3533 89.558 23.526 90.034 23.526C90.51 23.526 90.9114 23.3533 91.238 23.008C91.574 22.6627 91.742 22.1913 91.742 21.594ZM100.67 17.604C101.566 17.604 102.285 17.9027 102.826 18.5C103.367 19.088 103.638 19.9 103.638 20.936V25.5H101.258V21.258C101.258 20.7353 101.123 20.3293 100.852 20.04C100.581 19.7507 100.217 19.606 99.76 19.606C99.3027 19.606 98.9387 19.7507 98.668 20.04C98.3973 20.3293 98.262 20.7353 98.262 21.258V25.5H95.868V15.14H98.262V18.738C98.5047 18.3927 98.836 18.1173 99.256 17.912C99.676 17.7067 100.147 17.604 100.67 17.604ZM109.656 23.47V25.5H108.438C107.57 25.5 106.893 25.29 106.408 24.87C105.922 24.4407 105.68 23.7453 105.68 22.784V19.676H104.728V17.688H105.68V15.784H108.074V17.688H109.642V19.676H108.074V22.812C108.074 23.0453 108.13 23.2133 108.242 23.316C108.354 23.4187 108.54 23.47 108.802 23.47H109.656ZM113.383 15.672V25.5H110.989V15.672H113.383ZM122.118 27.18L120.858 25.486C120.485 25.5607 120.121 25.598 119.766 25.598C118.842 25.598 117.993 25.3833 117.218 24.954C116.453 24.5247 115.841 23.9273 115.384 23.162C114.936 22.3873 114.712 21.5193 114.712 20.558C114.712 19.5967 114.936 18.7333 115.384 17.968C115.841 17.2027 116.453 16.6053 117.218 16.176C117.993 15.7467 118.842 15.532 119.766 15.532C120.69 15.532 121.535 15.7467 122.3 16.176C123.075 16.6053 123.681 17.2027 124.12 17.968C124.568 18.7333 124.792 19.5967 124.792 20.558C124.792 21.398 124.619 22.168 124.274 22.868C123.938 23.5587 123.467 24.1327 122.86 24.59L125.016 27.18H122.118ZM117.162 20.558C117.162 21.426 117.395 22.1213 117.862 22.644C118.338 23.1573 118.973 23.414 119.766 23.414C120.55 23.414 121.175 23.1527 121.642 22.63C122.118 22.1073 122.356 21.4167 122.356 20.558C122.356 19.69 122.118 18.9993 121.642 18.486C121.175 17.9633 120.55 17.702 119.766 17.702C118.973 17.702 118.338 17.9587 117.862 18.472C117.395 18.9853 117.162 19.6807 117.162 20.558Z" fill="black"/>
<path d="M134.896 20.58V21.732H129.964V20.58H134.896ZM141.325 17.16V25.5H139.957V17.16H141.325ZM146.457 18.78C146.977 18.78 147.441 18.888 147.849 19.104C148.265 19.32 148.589 19.64 148.821 20.064C149.053 20.488 149.169 21 149.169 21.6V25.5H147.813V21.804C147.813 21.212 147.665 20.76 147.369 20.448C147.073 20.128 146.669 19.968 146.157 19.968C145.645 19.968 145.237 20.128 144.933 20.448C144.637 20.76 144.489 21.212 144.489 21.804V25.5H143.121V18.888H144.489V19.644C144.713 19.372 144.997 19.16 145.341 19.008C145.693 18.856 146.065 18.78 146.457 18.78ZM152.51 20.004V23.664C152.51 23.912 152.566 24.092 152.678 24.204C152.798 24.308 152.998 24.36 153.278 24.36H154.118V25.5H153.038C152.422 25.5 151.95 25.356 151.622 25.068C151.294 24.78 151.13 24.312 151.13 23.664V20.004H150.35V18.888H151.13V17.244H152.51V18.888H154.118V20.004H152.51ZM161.439 22.032C161.439 22.28 161.423 22.504 161.391 22.704H156.339C156.379 23.232 156.575 23.656 156.927 23.976C157.279 24.296 157.711 24.456 158.223 24.456C158.959 24.456 159.479 24.148 159.783 23.532H161.259C161.059 24.14 160.695 24.64 160.167 25.032C159.647 25.416 158.999 25.608 158.223 25.608C157.591 25.608 157.023 25.468 156.519 25.188C156.023 24.9 155.631 24.5 155.343 23.988C155.063 23.468 154.923 22.868 154.923 22.188C154.923 21.508 155.059 20.912 155.331 20.4C155.611 19.88 155.999 19.48 156.495 19.2C156.999 18.92 157.575 18.78 158.223 18.78C158.847 18.78 159.403 18.916 159.891 19.188C160.379 19.46 160.759 19.844 161.031 20.34C161.303 20.828 161.439 21.392 161.439 22.032ZM160.011 21.6C160.003 21.096 159.823 20.692 159.471 20.388C159.119 20.084 158.683 19.932 158.163 19.932C157.691 19.932 157.287 20.084 156.951 20.388C156.615 20.684 156.415 21.088 156.351 21.6H160.011ZM164.153 16.62V25.5H162.785V16.62H164.153ZM167.317 16.62V25.5H165.949V16.62H167.317ZM175.173 22.032C175.173 22.28 175.157 22.504 175.125 22.704H170.073C170.113 23.232 170.309 23.656 170.661 23.976C171.013 24.296 171.445 24.456 171.957 24.456C172.693 24.456 173.213 24.148 173.517 23.532H174.993C174.793 24.14 174.429 24.64 173.901 25.032C173.381 25.416 172.733 25.608 171.957 25.608C171.325 25.608 170.757 25.468 170.253 25.188C169.757 24.9 169.365 24.5 169.077 23.988C168.797 23.468 168.657 22.868 168.657 22.188C168.657 21.508 168.793 20.912 169.065 20.4C169.345 19.88 169.733 19.48 170.229 19.2C170.733 18.92 171.309 18.78 171.957 18.78C172.581 18.78 173.137 18.916 173.625 19.188C174.113 19.46 174.493 19.844 174.765 20.34C175.037 20.828 175.173 21.392 175.173 22.032ZM173.745 21.6C173.737 21.096 173.557 20.692 173.205 20.388C172.853 20.084 172.417 19.932 171.897 19.932C171.425 19.932 171.021 20.084 170.685 20.388C170.349 20.684 170.149 21.088 170.085 21.6H173.745ZM176.063 22.188C176.063 21.508 176.199 20.912 176.471 20.4C176.751 19.88 177.135 19.48 177.623 19.2C178.111 18.92 178.671 18.78 179.303 18.78C180.103 18.78 180.763 18.972 181.283 19.356C181.811 19.732 182.167 20.272 182.351 20.976H180.875C180.755 20.648 180.563 20.392 180.299 20.208C180.035 20.024 179.703 19.932 179.303 19.932C178.743 19.932 178.295 20.132 177.959 20.532C177.631 20.924 177.467 21.476 177.467 22.188C177.467 22.9 177.631 23.456 177.959 23.856C178.295 24.256 178.743 24.456 179.303 24.456C180.095 24.456 180.619 24.108 180.875 23.412H182.351C182.159 24.084 181.799 24.62 181.271 25.02C180.743 25.412 180.087 25.608 179.303 25.608C178.671 25.608 178.111 25.468 177.623 25.188C177.135 24.9 176.751 24.5 176.471 23.988C176.199 23.468 176.063 22.868 176.063 22.188ZM185.31 20.004V23.664C185.31 23.912 185.366 24.092 185.478 24.204C185.598 24.308 185.798 24.36 186.078 24.36H186.918V25.5H185.838C185.222 25.5 184.75 25.356 184.422 25.068C184.094 24.78 183.93 24.312 183.93 23.664V20.004H183.15V18.888H183.93V17.244H185.31V18.888H186.918V20.004H185.31ZM194.167 18.888V25.5H192.799V24.72C192.583 24.992 192.299 25.208 191.947 25.368C191.603 25.52 191.235 25.596 190.843 25.596C190.323 25.596 189.855 25.488 189.439 25.272C189.031 25.056 188.707 24.736 188.467 24.312C188.235 23.888 188.119 23.376 188.119 22.776V18.888H189.475V22.572C189.475 23.164 189.623 23.62 189.919 23.94C190.215 24.252 190.619 24.408 191.131 24.408C191.643 24.408 192.047 24.252 192.343 23.94C192.647 23.62 192.799 23.164 192.799 22.572V18.888H194.167ZM195.516 22.164C195.516 21.5 195.652 20.912 195.924 20.4C196.204 19.888 196.58 19.492 197.052 19.212C197.532 18.924 198.06 18.78 198.636 18.78C199.156 18.78 199.608 18.884 199.992 19.092C200.384 19.292 200.696 19.544 200.928 19.848V18.888H202.308V25.5H200.928V24.516C200.696 24.828 200.38 25.088 199.98 25.296C199.58 25.504 199.124 25.608 198.612 25.608C198.044 25.608 197.524 25.464 197.052 25.176C196.58 24.88 196.204 24.472 195.924 23.952C195.652 23.424 195.516 22.828 195.516 22.164ZM200.928 22.188C200.928 21.732 200.832 21.336 200.64 21C200.456 20.664 200.212 20.408 199.908 20.232C199.604 20.056 199.276 19.968 198.924 19.968C198.572 19.968 198.244 20.056 197.94 20.232C197.636 20.4 197.388 20.652 197.196 20.988C197.012 21.316 196.92 21.708 196.92 22.164C196.92 22.62 197.012 23.02 197.196 23.364C197.388 23.708 197.636 23.972 197.94 24.156C198.252 24.332 198.58 24.42 198.924 24.42C199.276 24.42 199.604 24.332 199.908 24.156C200.212 23.98 200.456 23.724 200.64 23.388C200.832 23.044 200.928 22.644 200.928 22.188ZM205.473 16.62V25.5H204.105V16.62H205.473ZM216.218 19.644C216.218 20.068 216.118 20.468 215.918 20.844C215.718 21.22 215.398 21.528 214.958 21.768C214.518 22 213.954 22.116 213.266 22.116H211.754V25.5H210.386V17.16H213.266C213.906 17.16 214.446 17.272 214.886 17.496C215.334 17.712 215.666 18.008 215.882 18.384C216.106 18.76 216.218 19.18 216.218 19.644ZM213.266 21C213.786 21 214.174 20.884 214.43 20.652C214.686 20.412 214.814 20.076 214.814 19.644C214.814 18.732 214.298 18.276 213.266 18.276H211.754V21H213.266ZM218.891 19.848C219.091 19.512 219.355 19.252 219.683 19.068C220.019 18.876 220.415 18.78 220.871 18.78V20.196H220.523C219.987 20.196 219.579 20.332 219.299 20.604C219.027 20.876 218.891 21.348 218.891 22.02V25.5H217.523V18.888H218.891V19.848ZM224.997 25.608C224.373 25.608 223.809 25.468 223.305 25.188C222.801 24.9 222.405 24.5 222.117 23.988C221.829 23.468 221.685 22.868 221.685 22.188C221.685 21.516 221.833 20.92 222.129 20.4C222.425 19.88 222.829 19.48 223.341 19.2C223.853 18.92 224.425 18.78 225.057 18.78C225.689 18.78 226.261 18.92 226.773 19.2C227.285 19.48 227.689 19.88 227.985 20.4C228.281 20.92 228.429 21.516 228.429 22.188C228.429 22.86 228.277 23.456 227.973 23.976C227.669 24.496 227.253 24.9 226.725 25.188C226.205 25.468 225.629 25.608 224.997 25.608ZM224.997 24.42C225.349 24.42 225.677 24.336 225.981 24.168C226.293 24 226.545 23.748 226.737 23.412C226.929 23.076 227.025 22.668 227.025 22.188C227.025 21.708 226.933 21.304 226.749 20.976C226.565 20.64 226.321 20.388 226.017 20.22C225.713 20.052 225.385 19.968 225.033 19.968C224.681 19.968 224.353 20.052 224.049 20.22C223.753 20.388 223.517 20.64 223.341 20.976C223.165 21.304 223.077 21.708 223.077 22.188C223.077 22.9 223.257 23.452 223.617 23.844C223.985 24.228 224.445 24.42 224.997 24.42ZM231.149 19.86C231.381 19.556 231.697 19.3 232.097 19.092C232.497 18.884 232.949 18.78 233.453 18.78C234.029 18.78 234.553 18.924 235.025 19.212C235.505 19.492 235.881 19.888 236.153 20.4C236.425 20.912 236.561 21.5 236.561 22.164C236.561 22.828 236.425 23.424 236.153 23.952C235.881 24.472 235.505 24.88 235.025 25.176C234.553 25.464 234.029 25.608 233.453 25.608C232.949 25.608 232.501 25.508 232.109 25.308C231.717 25.1 231.397 24.844 231.149 24.54V28.644H229.781V18.888H231.149V19.86ZM235.169 22.164C235.169 21.708 235.073 21.316 234.881 20.988C234.697 20.652 234.449 20.4 234.137 20.232C233.833 20.056 233.505 19.968 233.153 19.968C232.809 19.968 232.481 20.056 232.169 20.232C231.865 20.408 231.617 20.664 231.425 21C231.241 21.336 231.149 21.732 231.149 22.188C231.149 22.644 231.241 23.044 231.425 23.388C231.617 23.724 231.865 23.98 232.169 24.156C232.481 24.332 232.809 24.42 233.153 24.42C233.505 24.42 233.833 24.332 234.137 24.156C234.449 23.972 234.697 23.708 234.881 23.364C235.073 23.02 235.169 22.62 235.169 22.164ZM243.974 22.032C243.974 22.28 243.958 22.504 243.926 22.704H238.874C238.914 23.232 239.11 23.656 239.462 23.976C239.814 24.296 240.246 24.456 240.758 24.456C241.494 24.456 242.014 24.148 242.318 23.532H243.794C243.594 24.14 243.23 24.64 242.702 25.032C242.182 25.416 241.534 25.608 240.758 25.608C240.126 25.608 239.558 25.468 239.054 25.188C238.558 24.9 238.166 24.5 237.878 23.988C237.598 23.468 237.458 22.868 237.458 22.188C237.458 21.508 237.594 20.912 237.866 20.4C238.146 19.88 238.534 19.48 239.03 19.2C239.534 18.92 240.11 18.78 240.758 18.78C241.382 18.78 241.938 18.916 242.426 19.188C242.914 19.46 243.294 19.844 243.566 20.34C243.838 20.828 243.974 21.392 243.974 22.032ZM242.546 21.6C242.538 21.096 242.358 20.692 242.006 20.388C241.654 20.084 241.218 19.932 240.698 19.932C240.226 19.932 239.822 20.084 239.486 20.388C239.15 20.684 238.95 21.088 238.886 21.6H242.546ZM246.688 19.848C246.888 19.512 247.152 19.252 247.48 19.068C247.816 18.876 248.212 18.78 248.668 18.78V20.196H248.32C247.784 20.196 247.376 20.332 247.096 20.604C246.824 20.876 246.688 21.348 246.688 22.02V25.5H245.32V18.888H246.688V19.848ZM251.521 20.004V23.664C251.521 23.912 251.577 24.092 251.689 24.204C251.809 24.308 252.009 24.36 252.289 24.36H253.129V25.5H252.049C251.433 25.5 250.961 25.356 250.633 25.068C250.305 24.78 250.141 24.312 250.141 23.664V20.004H249.361V18.888H250.141V17.244H251.521V18.888H253.129V20.004H251.521ZM260.342 18.888L256.286 28.608H254.87L256.214 25.392L253.61 18.888H255.134L256.994 23.928L258.926 18.888H260.342Z" fill="#D6D6D6"/>
</svg>
