<svg width="232" height="26" viewBox="0 0 232 26" fill="none" xmlns="http://www.w3.org/2000/svg">
<circle cx="13" cy="13" r="13" fill="white"/>
<path fill-rule="evenodd" clip-rule="evenodd" d="M13 24C19.0751 24 24 19.0751 24 13C24 6.92487 19.0751 2 13 2C6.92486 2 2 6.92487 2 13C2 19.0751 6.92486 24 13 24ZM16.4316 7.12427C16.5987 6.53093 16.0229 6.18007 15.497 6.55472L8.15621 11.7843C7.58592 12.1906 7.67562 13 8.29096 13H10.224V12.985H13.9914L10.9217 14.0681L9.56839 18.8758C9.40136 19.4691 9.9771 19.8199 10.503 19.4453L17.8438 14.2158C18.4141 13.8095 18.3243 13 17.709 13H14.7777L16.4316 7.12427Z" fill="#006C83"/>
<path d="M37.262 8.172V18H34.868V8.172H37.262ZM43.7569 10.104C44.6716 10.104 45.3996 10.4027 45.9409 11C46.4916 11.588 46.7669 12.4 46.7669 13.436V18H44.3869V13.758C44.3869 13.2353 44.2516 12.8293 43.9809 12.54C43.7102 12.2507 43.3462 12.106 42.8889 12.106C42.4316 12.106 42.0676 12.2507 41.7969 12.54C41.5262 12.8293 41.3909 13.2353 41.3909 13.758V18H38.9969V10.188H41.3909V11.224C41.6336 10.8787 41.9602 10.608 42.3709 10.412C42.7816 10.2067 43.2436 10.104 43.7569 10.104ZM51.6085 18.112C50.9272 18.112 50.3205 17.9953 49.7885 17.762C49.2565 17.5287 48.8365 17.2113 48.5285 16.81C48.2205 16.3993 48.0478 15.942 48.0105 15.438H50.3765C50.4045 15.7087 50.5305 15.928 50.7545 16.096C50.9785 16.264 51.2538 16.348 51.5805 16.348C51.8792 16.348 52.1078 16.292 52.2665 16.18C52.4345 16.0587 52.5185 15.9047 52.5185 15.718C52.5185 15.494 52.4018 15.3307 52.1685 15.228C51.9352 15.116 51.5572 14.9947 51.0345 14.864C50.4745 14.7333 50.0078 14.598 49.6345 14.458C49.2612 14.3087 48.9392 14.08 48.6685 13.772C48.3978 13.4547 48.2625 13.03 48.2625 12.498C48.2625 12.05 48.3838 11.644 48.6265 11.28C48.8785 10.9067 49.2425 10.6127 49.7185 10.398C50.2038 10.1833 50.7778 10.076 51.4405 10.076C52.4205 10.076 53.1905 10.3187 53.7505 10.804C54.3198 11.2893 54.6465 11.9333 54.7305 12.736H52.5185C52.4812 12.4653 52.3598 12.2507 52.1545 12.092C51.9585 11.9333 51.6972 11.854 51.3705 11.854C51.0905 11.854 50.8758 11.91 50.7265 12.022C50.5772 12.1247 50.5025 12.2693 50.5025 12.456C50.5025 12.68 50.6192 12.848 50.8525 12.96C51.0952 13.072 51.4685 13.184 51.9725 13.296C52.5512 13.4453 53.0225 13.5947 53.3865 13.744C53.7505 13.884 54.0678 14.1173 54.3385 14.444C54.6185 14.7613 54.7632 15.1907 54.7725 15.732C54.7725 16.1893 54.6418 16.6 54.3805 16.964C54.1285 17.3187 53.7598 17.5987 53.2745 17.804C52.7985 18.0093 52.2432 18.112 51.6085 18.112ZM57.4411 9.376C57.0211 9.376 56.6758 9.25467 56.4051 9.012C56.1438 8.76 56.0131 8.452 56.0131 8.088C56.0131 7.71467 56.1438 7.40667 56.4051 7.164C56.6758 6.912 57.0211 6.786 57.4411 6.786C57.8518 6.786 58.1878 6.912 58.4491 7.164C58.7198 7.40667 58.8551 7.71467 58.8551 8.088C58.8551 8.452 58.7198 8.76 58.4491 9.012C58.1878 9.25467 57.8518 9.376 57.4411 9.376ZM58.6311 10.188V18H56.2371V10.188H58.6311ZM63.334 10.076C63.8847 10.076 64.3654 10.188 64.776 10.412C65.196 10.636 65.518 10.93 65.742 11.294V10.188H68.136V17.986C68.136 18.7047 67.9914 19.3533 67.702 19.932C67.422 20.52 66.988 20.9867 66.4 21.332C65.8214 21.6773 65.098 21.85 64.23 21.85C63.0727 21.85 62.1347 21.5747 61.416 21.024C60.6974 20.4827 60.2867 19.7453 60.184 18.812H62.55C62.6247 19.1107 62.802 19.344 63.082 19.512C63.362 19.6893 63.7074 19.778 64.118 19.778C64.6127 19.778 65.0047 19.6333 65.294 19.344C65.5927 19.064 65.742 18.6113 65.742 17.986V16.88C65.5087 17.244 65.1867 17.5427 64.776 17.776C64.3654 18 63.8847 18.112 63.334 18.112C62.69 18.112 62.1067 17.9487 61.584 17.622C61.0614 17.286 60.646 16.8147 60.338 16.208C60.0394 15.592 59.89 14.8827 59.89 14.08C59.89 13.2773 60.0394 12.5727 60.338 11.966C60.646 11.3593 61.0614 10.8927 61.584 10.566C62.1067 10.2393 62.69 10.076 63.334 10.076ZM65.742 14.094C65.742 13.4967 65.574 13.0253 65.238 12.68C64.9114 12.3347 64.51 12.162 64.034 12.162C63.558 12.162 63.152 12.3347 62.816 12.68C62.4894 13.016 62.326 13.4827 62.326 14.08C62.326 14.6773 62.4894 15.1533 62.816 15.508C63.152 15.8533 63.558 16.026 64.034 16.026C64.51 16.026 64.9114 15.8533 65.238 15.508C65.574 15.1627 65.742 14.6913 65.742 14.094ZM74.67 10.104C75.566 10.104 76.2847 10.4027 76.826 11C77.3673 11.588 77.638 12.4 77.638 13.436V18H75.258V13.758C75.258 13.2353 75.1227 12.8293 74.852 12.54C74.5813 12.2507 74.2173 12.106 73.76 12.106C73.3027 12.106 72.9387 12.2507 72.668 12.54C72.3973 12.8293 72.262 13.2353 72.262 13.758V18H69.868V7.64H72.262V11.238C72.5047 10.8927 72.836 10.6173 73.256 10.412C73.676 10.2067 74.1473 10.104 74.67 10.104ZM83.6556 15.97V18H82.4376C81.5696 18 80.8929 17.79 80.4076 17.37C79.9223 16.9407 79.6796 16.2453 79.6796 15.284V12.176H78.7276V10.188H79.6796V8.284H82.0736V10.188H83.6416V12.176H82.0736V15.312C82.0736 15.5453 82.1296 15.7133 82.2416 15.816C82.3536 15.9187 82.5403 15.97 82.8016 15.97H83.6556ZM87.3831 8.172V18H84.9891V8.172H87.3831ZM96.118 19.68L94.858 17.986C94.4847 18.0607 94.1207 18.098 93.766 18.098C92.842 18.098 91.9927 17.8833 91.218 17.454C90.4527 17.0247 89.8413 16.4273 89.384 15.662C88.936 14.8873 88.712 14.0193 88.712 13.058C88.712 12.0967 88.936 11.2333 89.384 10.468C89.8413 9.70267 90.4527 9.10533 91.218 8.676C91.9927 8.24667 92.842 8.032 93.766 8.032C94.69 8.032 95.5347 8.24667 96.3 8.676C97.0747 9.10533 97.6813 9.70267 98.12 10.468C98.568 11.2333 98.792 12.0967 98.792 13.058C98.792 13.898 98.6193 14.668 98.274 15.368C97.938 16.0587 97.4667 16.6327 96.86 17.09L99.016 19.68H96.118ZM91.162 13.058C91.162 13.926 91.3953 14.6213 91.862 15.144C92.338 15.6573 92.9727 15.914 93.766 15.914C94.55 15.914 95.1753 15.6527 95.642 15.13C96.118 14.6073 96.356 13.9167 96.356 13.058C96.356 12.19 96.118 11.4993 95.642 10.986C95.1753 10.4633 94.55 10.202 93.766 10.202C92.9727 10.202 92.338 10.4587 91.862 10.972C91.3953 11.4853 91.162 12.1807 91.162 13.058Z" fill="white"/>
<path d="M107.31 13.14V14.064H102.522V13.14H107.31ZM113.651 9.636V18H112.559V9.636H113.651ZM118.716 11.304C119.516 11.304 120.164 11.548 120.66 12.036C121.156 12.516 121.404 13.212 121.404 14.124V18H120.324V14.28C120.324 13.624 120.16 13.124 119.832 12.78C119.504 12.428 119.056 12.252 118.488 12.252C117.912 12.252 117.452 12.432 117.108 12.792C116.772 13.152 116.604 13.676 116.604 14.364V18H115.512V11.424H116.604V12.36C116.82 12.024 117.112 11.764 117.48 11.58C117.856 11.396 118.268 11.304 118.716 11.304ZM124.52 12.324V16.2C124.52 16.52 124.588 16.748 124.724 16.884C124.86 17.012 125.096 17.076 125.432 17.076H126.236V18H125.252C124.644 18 124.188 17.86 123.884 17.58C123.58 17.3 123.428 16.84 123.428 16.2V12.324H122.576V11.424H123.428V9.768H124.52V11.424H126.236V12.324H124.52ZM133.559 14.46C133.559 14.668 133.547 14.888 133.523 15.12H128.267C128.307 15.768 128.527 16.276 128.927 16.644C129.335 17.004 129.827 17.184 130.403 17.184C130.875 17.184 131.267 17.076 131.579 16.86C131.899 16.636 132.123 16.34 132.251 15.972H133.427C133.251 16.604 132.899 17.12 132.371 17.52C131.843 17.912 131.187 18.108 130.403 18.108C129.779 18.108 129.219 17.968 128.723 17.688C128.235 17.408 127.851 17.012 127.571 16.5C127.291 15.98 127.151 15.38 127.151 14.7C127.151 14.02 127.287 13.424 127.559 12.912C127.831 12.4 128.211 12.008 128.699 11.736C129.195 11.456 129.763 11.316 130.403 11.316C131.027 11.316 131.579 11.452 132.059 11.724C132.539 11.996 132.907 12.372 133.163 12.852C133.427 13.324 133.559 13.86 133.559 14.46ZM132.431 14.232C132.431 13.816 132.339 13.46 132.155 13.164C131.971 12.86 131.719 12.632 131.399 12.48C131.087 12.32 130.739 12.24 130.355 12.24C129.803 12.24 129.331 12.416 128.939 12.768C128.555 13.12 128.335 13.608 128.279 14.232H132.431ZM136.092 9.12V18H135V9.12H136.092ZM139.045 9.12V18H137.953V9.12H139.045ZM146.906 14.46C146.906 14.668 146.894 14.888 146.87 15.12H141.614C141.654 15.768 141.874 16.276 142.274 16.644C142.682 17.004 143.174 17.184 143.75 17.184C144.222 17.184 144.614 17.076 144.926 16.86C145.246 16.636 145.47 16.34 145.598 15.972H146.774C146.598 16.604 146.246 17.12 145.718 17.52C145.19 17.912 144.534 18.108 143.75 18.108C143.126 18.108 142.566 17.968 142.07 17.688C141.582 17.408 141.198 17.012 140.918 16.5C140.638 15.98 140.498 15.38 140.498 14.7C140.498 14.02 140.634 13.424 140.906 12.912C141.178 12.4 141.558 12.008 142.046 11.736C142.542 11.456 143.11 11.316 143.75 11.316C144.374 11.316 144.926 11.452 145.406 11.724C145.886 11.996 146.254 12.372 146.51 12.852C146.774 13.324 146.906 13.86 146.906 14.46ZM145.778 14.232C145.778 13.816 145.686 13.46 145.502 13.164C145.318 12.86 145.066 12.632 144.746 12.48C144.434 12.32 144.086 12.24 143.702 12.24C143.15 12.24 142.678 12.416 142.286 12.768C141.902 13.12 141.682 13.608 141.626 14.232H145.778ZM147.94 14.7C147.94 14.02 148.076 13.428 148.348 12.924C148.62 12.412 148.996 12.016 149.476 11.736C149.964 11.456 150.52 11.316 151.144 11.316C151.952 11.316 152.616 11.512 153.136 11.904C153.664 12.296 154.012 12.84 154.18 13.536H153.004C152.892 13.136 152.672 12.82 152.344 12.588C152.024 12.356 151.624 12.24 151.144 12.24C150.52 12.24 150.016 12.456 149.632 12.888C149.248 13.312 149.056 13.916 149.056 14.7C149.056 15.492 149.248 16.104 149.632 16.536C150.016 16.968 150.52 17.184 151.144 17.184C151.624 17.184 152.024 17.072 152.344 16.848C152.664 16.624 152.884 16.304 153.004 15.888H154.18C154.004 16.56 153.652 17.1 153.124 17.508C152.596 17.908 151.936 18.108 151.144 18.108C150.52 18.108 149.964 17.968 149.476 17.688C148.996 17.408 148.62 17.012 148.348 16.5C148.076 15.988 147.94 15.388 147.94 14.7ZM156.969 12.324V16.2C156.969 16.52 157.037 16.748 157.173 16.884C157.309 17.012 157.545 17.076 157.881 17.076H158.685V18H157.701C157.093 18 156.637 17.86 156.333 17.58C156.029 17.3 155.877 16.84 155.877 16.2V12.324H155.025V11.424H155.877V9.768H156.969V11.424H158.685V12.324H156.969ZM165.84 11.424V18H164.748V17.028C164.54 17.364 164.248 17.628 163.872 17.82C163.504 18.004 163.096 18.096 162.648 18.096C162.136 18.096 161.676 17.992 161.268 17.784C160.86 17.568 160.536 17.248 160.296 16.824C160.064 16.4 159.948 15.884 159.948 15.276V11.424H161.028V15.132C161.028 15.78 161.192 16.28 161.52 16.632C161.848 16.976 162.296 17.148 162.864 17.148C163.448 17.148 163.908 16.968 164.244 16.608C164.58 16.248 164.748 15.724 164.748 15.036V11.424H165.84ZM167.276 14.688C167.276 14.016 167.412 13.428 167.684 12.924C167.956 12.412 168.328 12.016 168.8 11.736C169.28 11.456 169.812 11.316 170.396 11.316C170.972 11.316 171.472 11.44 171.896 11.688C172.32 11.936 172.636 12.248 172.844 12.624V11.424H173.948V18H172.844V16.776C172.628 17.16 172.304 17.48 171.872 17.736C171.448 17.984 170.952 18.108 170.384 18.108C169.8 18.108 169.272 17.964 168.8 17.676C168.328 17.388 167.956 16.984 167.684 16.464C167.412 15.944 167.276 15.352 167.276 14.688ZM172.844 14.7C172.844 14.204 172.744 13.772 172.544 13.404C172.344 13.036 172.072 12.756 171.728 12.564C171.392 12.364 171.02 12.264 170.612 12.264C170.204 12.264 169.832 12.36 169.496 12.552C169.16 12.744 168.892 13.024 168.692 13.392C168.492 13.76 168.392 14.192 168.392 14.688C168.392 15.192 168.492 15.632 168.692 16.008C168.892 16.376 169.16 16.66 169.496 16.86C169.832 17.052 170.204 17.148 170.612 17.148C171.02 17.148 171.392 17.052 171.728 16.86C172.072 16.66 172.344 16.376 172.544 16.008C172.744 15.632 172.844 15.196 172.844 14.7ZM176.885 9.12V18H175.793V9.12H176.885ZM187.537 12.084C187.537 12.78 187.297 13.36 186.817 13.824C186.345 14.28 185.621 14.508 184.645 14.508H183.037V18H181.945V9.636H184.645C185.589 9.636 186.305 9.864 186.793 10.32C187.289 10.776 187.537 11.364 187.537 12.084ZM184.645 13.608C185.253 13.608 185.701 13.476 185.989 13.212C186.277 12.948 186.421 12.572 186.421 12.084C186.421 11.052 185.829 10.536 184.645 10.536H183.037V13.608H184.645ZM189.987 12.492C190.179 12.116 190.451 11.824 190.803 11.616C191.163 11.408 191.599 11.304 192.111 11.304V12.432H191.823C190.599 12.432 189.987 13.096 189.987 14.424V18H188.895V11.424H189.987V12.492ZM196.239 18.108C195.623 18.108 195.063 17.968 194.559 17.688C194.063 17.408 193.671 17.012 193.383 16.5C193.103 15.98 192.963 15.38 192.963 14.7C192.963 14.028 193.107 13.436 193.395 12.924C193.691 12.404 194.091 12.008 194.595 11.736C195.099 11.456 195.663 11.316 196.287 11.316C196.911 11.316 197.475 11.456 197.979 11.736C198.483 12.008 198.879 12.4 199.167 12.912C199.463 13.424 199.611 14.02 199.611 14.7C199.611 15.38 199.459 15.98 199.155 16.5C198.859 17.012 198.455 17.408 197.943 17.688C197.431 17.968 196.863 18.108 196.239 18.108ZM196.239 17.148C196.631 17.148 196.999 17.056 197.343 16.872C197.687 16.688 197.963 16.412 198.171 16.044C198.387 15.676 198.495 15.228 198.495 14.7C198.495 14.172 198.391 13.724 198.183 13.356C197.975 12.988 197.703 12.716 197.367 12.54C197.031 12.356 196.667 12.264 196.275 12.264C195.875 12.264 195.507 12.356 195.171 12.54C194.843 12.716 194.579 12.988 194.379 13.356C194.179 13.724 194.079 14.172 194.079 14.7C194.079 15.236 194.175 15.688 194.367 16.056C194.567 16.424 194.831 16.7 195.159 16.884C195.487 17.06 195.847 17.148 196.239 17.148ZM202.139 12.636C202.355 12.26 202.675 11.948 203.099 11.7C203.531 11.444 204.031 11.316 204.599 11.316C205.183 11.316 205.711 11.456 206.183 11.736C206.663 12.016 207.039 12.412 207.311 12.924C207.583 13.428 207.719 14.016 207.719 14.688C207.719 15.352 207.583 15.944 207.311 16.464C207.039 16.984 206.663 17.388 206.183 17.676C205.711 17.964 205.183 18.108 204.599 18.108C204.039 18.108 203.543 17.984 203.111 17.736C202.687 17.48 202.363 17.164 202.139 16.788V21.12H201.047V11.424H202.139V12.636ZM206.603 14.688C206.603 14.192 206.503 13.76 206.303 13.392C206.103 13.024 205.831 12.744 205.487 12.552C205.151 12.36 204.779 12.264 204.371 12.264C203.971 12.264 203.599 12.364 203.255 12.564C202.919 12.756 202.647 13.04 202.439 13.416C202.239 13.784 202.139 14.212 202.139 14.7C202.139 15.196 202.239 15.632 202.439 16.008C202.647 16.376 202.919 16.66 203.255 16.86C203.599 17.052 203.971 17.148 204.371 17.148C204.779 17.148 205.151 17.052 205.487 16.86C205.831 16.66 206.103 16.376 206.303 16.008C206.503 15.632 206.603 15.192 206.603 14.688ZM215.156 14.46C215.156 14.668 215.144 14.888 215.12 15.12H209.864C209.904 15.768 210.124 16.276 210.524 16.644C210.932 17.004 211.424 17.184 212 17.184C212.472 17.184 212.864 17.076 213.176 16.86C213.496 16.636 213.72 16.34 213.848 15.972H215.024C214.848 16.604 214.496 17.12 213.968 17.52C213.44 17.912 212.784 18.108 212 18.108C211.376 18.108 210.816 17.968 210.32 17.688C209.832 17.408 209.448 17.012 209.168 16.5C208.888 15.98 208.748 15.38 208.748 14.7C208.748 14.02 208.884 13.424 209.156 12.912C209.428 12.4 209.808 12.008 210.296 11.736C210.792 11.456 211.36 11.316 212 11.316C212.624 11.316 213.176 11.452 213.656 11.724C214.136 11.996 214.504 12.372 214.76 12.852C215.024 13.324 215.156 13.86 215.156 14.46ZM214.028 14.232C214.028 13.816 213.936 13.46 213.752 13.164C213.568 12.86 213.316 12.632 212.996 12.48C212.684 12.32 212.336 12.24 211.952 12.24C211.4 12.24 210.928 12.416 210.536 12.768C210.152 13.12 209.932 13.608 209.876 14.232H214.028ZM217.69 12.492C217.882 12.116 218.154 11.824 218.506 11.616C218.866 11.408 219.302 11.304 219.814 11.304V12.432H219.526C218.302 12.432 217.69 13.096 217.69 14.424V18H216.598V11.424H217.69V12.492ZM222.406 12.324V16.2C222.406 16.52 222.474 16.748 222.61 16.884C222.746 17.012 222.982 17.076 223.318 17.076H224.122V18H223.138C222.53 18 222.074 17.86 221.77 17.58C221.466 17.3 221.314 16.84 221.314 16.2V12.324H220.462V11.424H221.314V9.768H222.406V11.424H224.122V12.324H222.406ZM231.109 11.424L227.149 21.096H226.021L227.317 17.928L224.665 11.424H225.877L227.941 16.752L229.981 11.424H231.109Z" fill="white" fill-opacity="0.7"/>
</svg>
