<svg width="201" height="24" viewBox="0 0 201 24" fill="none" xmlns="http://www.w3.org/2000/svg">
<circle cx="12" cy="12" r="12" fill="white"/>
<path fill-rule="evenodd" clip-rule="evenodd" d="M12 22C17.5229 22 22 17.5228 22 12C22 6.47716 17.5229 2 12 2C6.47714 2 2 6.47716 2 12C2 17.5228 6.47714 22 12 22ZM15.1197 6.65842C15.2715 6.11903 14.7481 5.80007 14.27 6.14065L7.59656 10.8948C7.07811 11.2641 7.15966 12 7.71906 12H9.47636V11.9864H12.9013L10.1106 12.971L8.88036 17.3416C8.72851 17.881 9.25191 18.1999 9.73001 17.8593L16.4035 13.1052C16.9219 12.7359 16.8403 12 16.281 12H13.6161L15.1197 6.65842Z" fill="#006C83"/>
<path d="M36.796 7.576V16H34.744V7.576H36.796ZM42.3631 9.232C43.1471 9.232 43.7711 9.488 44.2351 10C44.7071 10.504 44.9431 11.2 44.9431 12.088V16H42.9031V12.364C42.9031 11.916 42.7871 11.568 42.5551 11.32C42.3231 11.072 42.0111 10.948 41.6191 10.948C41.2271 10.948 40.9151 11.072 40.6831 11.32C40.4511 11.568 40.3351 11.916 40.3351 12.364V16H38.2831V9.304H40.3351V10.192C40.5431 9.896 40.8231 9.664 41.1751 9.496C41.5271 9.32 41.9231 9.232 42.3631 9.232ZM49.093 16.096C48.509 16.096 47.989 15.996 47.533 15.796C47.077 15.596 46.717 15.324 46.453 14.98C46.189 14.628 46.041 14.236 46.009 13.804H48.037C48.061 14.036 48.169 14.224 48.361 14.368C48.553 14.512 48.789 14.584 49.069 14.584C49.325 14.584 49.521 14.536 49.657 14.44C49.801 14.336 49.873 14.204 49.873 14.044C49.873 13.852 49.773 13.712 49.573 13.624C49.373 13.528 49.049 13.424 48.601 13.312C48.121 13.2 47.721 13.084 47.401 12.964C47.081 12.836 46.805 12.64 46.573 12.376C46.341 12.104 46.225 11.74 46.225 11.284C46.225 10.9 46.329 10.552 46.537 10.24C46.753 9.92 47.065 9.668 47.473 9.484C47.889 9.3 48.381 9.208 48.949 9.208C49.789 9.208 50.449 9.416 50.929 9.832C51.417 10.248 51.697 10.8 51.769 11.488H49.873C49.841 11.256 49.737 11.072 49.561 10.936C49.393 10.8 49.169 10.732 48.889 10.732C48.649 10.732 48.465 10.78 48.337 10.876C48.209 10.964 48.145 11.088 48.145 11.248C48.145 11.44 48.245 11.584 48.445 11.68C48.653 11.776 48.973 11.872 49.405 11.968C49.901 12.096 50.305 12.224 50.617 12.352C50.929 12.472 51.201 12.672 51.433 12.952C51.673 13.224 51.797 13.592 51.805 14.056C51.805 14.448 51.693 14.8 51.469 15.112C51.253 15.416 50.937 15.656 50.521 15.832C50.113 16.008 49.637 16.096 49.093 16.096ZM54.0924 8.608C53.7324 8.608 53.4364 8.504 53.2044 8.296C52.9804 8.08 52.8684 7.816 52.8684 7.504C52.8684 7.184 52.9804 6.92 53.2044 6.712C53.4364 6.496 53.7324 6.388 54.0924 6.388C54.4444 6.388 54.7324 6.496 54.9564 6.712C55.1884 6.92 55.3044 7.184 55.3044 7.504C55.3044 7.816 55.1884 8.08 54.9564 8.296C54.7324 8.504 54.4444 8.608 54.0924 8.608ZM55.1124 9.304V16H53.0604V9.304H55.1124ZM59.1435 9.208C59.6155 9.208 60.0275 9.304 60.3795 9.496C60.7395 9.688 61.0155 9.94 61.2075 10.252V9.304H63.2595V15.988C63.2595 16.604 63.1355 17.16 62.8875 17.656C62.6475 18.16 62.2755 18.56 61.7715 18.856C61.2755 19.152 60.6555 19.3 59.9115 19.3C58.9195 19.3 58.1155 19.064 57.4995 18.592C56.8835 18.128 56.5315 17.496 56.4435 16.696H58.4715C58.5355 16.952 58.6875 17.152 58.9275 17.296C59.1675 17.448 59.4635 17.524 59.8155 17.524C60.2395 17.524 60.5755 17.4 60.8235 17.152C61.0795 16.912 61.2075 16.524 61.2075 15.988V15.04C61.0075 15.352 60.7315 15.608 60.3795 15.808C60.0275 16 59.6155 16.096 59.1435 16.096C58.5915 16.096 58.0915 15.956 57.6435 15.676C57.1955 15.388 56.8395 14.984 56.5755 14.464C56.3195 13.936 56.1915 13.328 56.1915 12.64C56.1915 11.952 56.3195 11.348 56.5755 10.828C56.8395 10.308 57.1955 9.908 57.6435 9.628C58.0915 9.348 58.5915 9.208 59.1435 9.208ZM61.2075 12.652C61.2075 12.14 61.0635 11.736 60.7755 11.44C60.4955 11.144 60.1515 10.996 59.7435 10.996C59.3355 10.996 58.9875 11.144 58.6995 11.44C58.4195 11.728 58.2795 12.128 58.2795 12.64C58.2795 13.152 58.4195 13.56 58.6995 13.864C58.9875 14.16 59.3355 14.308 59.7435 14.308C60.1515 14.308 60.4955 14.16 60.7755 13.864C61.0635 13.568 61.2075 13.164 61.2075 12.652ZM68.86 9.232C69.628 9.232 70.244 9.488 70.708 10C71.172 10.504 71.404 11.2 71.404 12.088V16H69.364V12.364C69.364 11.916 69.248 11.568 69.016 11.32C68.784 11.072 68.472 10.948 68.08 10.948C67.688 10.948 67.376 11.072 67.144 11.32C66.912 11.568 66.796 11.916 66.796 12.364V16H64.744V7.12H66.796V10.204C67.004 9.908 67.288 9.672 67.648 9.496C68.008 9.32 68.412 9.232 68.86 9.232ZM76.5619 14.26V16H75.5179C74.7739 16 74.1939 15.82 73.7779 15.46C73.3619 15.092 73.1539 14.496 73.1539 13.672V11.008H72.3379V9.304H73.1539V7.672H75.2059V9.304H76.5499V11.008H75.2059V13.696C75.2059 13.896 75.2539 14.04 75.3499 14.128C75.4459 14.216 75.6059 14.26 75.8299 14.26H76.5619ZM79.7569 7.576V16H77.7049V7.576H79.7569ZM87.244 17.44L86.164 15.988C85.844 16.052 85.532 16.084 85.228 16.084C84.436 16.084 83.708 15.9 83.044 15.532C82.388 15.164 81.864 14.652 81.472 13.996C81.088 13.332 80.896 12.588 80.896 11.764C80.896 10.94 81.088 10.2 81.472 9.544C81.864 8.888 82.388 8.376 83.044 8.008C83.708 7.64 84.436 7.456 85.228 7.456C86.02 7.456 86.744 7.64 87.4 8.008C88.064 8.376 88.584 8.888 88.96 9.544C89.344 10.2 89.536 10.94 89.536 11.764C89.536 12.484 89.388 13.144 89.092 13.744C88.804 14.336 88.4 14.828 87.88 15.22L89.728 17.44H87.244ZM82.996 11.764C82.996 12.508 83.196 13.104 83.596 13.552C84.004 13.992 84.548 14.212 85.228 14.212C85.9 14.212 86.436 13.988 86.836 13.54C87.244 13.092 87.448 12.5 87.448 11.764C87.448 11.02 87.244 10.428 86.836 9.988C86.436 9.54 85.9 9.316 85.228 9.316C84.548 9.316 84.004 9.536 83.596 9.976C83.196 10.416 82.996 11.012 82.996 11.764Z" fill="white"/>
<path d="M97.07 11.95V12.72H93.08V11.95H97.07ZM102.354 9.03V16H101.444V9.03H102.354ZM106.575 10.42C107.241 10.42 107.781 10.6233 108.195 11.03C108.608 11.43 108.815 12.01 108.815 12.77V16H107.915V12.9C107.915 12.3533 107.778 11.9367 107.505 11.65C107.231 11.3567 106.858 11.21 106.385 11.21C105.905 11.21 105.521 11.36 105.235 11.66C104.955 11.96 104.815 12.3967 104.815 12.97V16H103.905V10.52H104.815V11.3C104.995 11.02 105.238 10.8033 105.545 10.65C105.858 10.4967 106.201 10.42 106.575 10.42ZM111.411 11.27V14.5C111.411 14.7667 111.468 14.9567 111.581 15.07C111.695 15.1767 111.891 15.23 112.171 15.23H112.841V16H112.021C111.515 16 111.135 15.8833 110.881 15.65C110.628 15.4167 110.501 15.0333 110.501 14.5V11.27H109.791V10.52H110.501V9.14H111.411V10.52H112.841V11.27H111.411ZM118.944 13.05C118.944 13.2233 118.934 13.4067 118.914 13.6H114.534C114.567 14.14 114.75 14.5633 115.084 14.87C115.424 15.17 115.834 15.32 116.314 15.32C116.707 15.32 117.034 15.23 117.294 15.05C117.56 14.8633 117.747 14.6167 117.854 14.31H118.834C118.687 14.8367 118.394 15.2667 117.954 15.6C117.514 15.9267 116.967 16.09 116.314 16.09C115.794 16.09 115.327 15.9733 114.914 15.74C114.507 15.5067 114.187 15.1767 113.954 14.75C113.72 14.3167 113.604 13.8167 113.604 13.25C113.604 12.6833 113.717 12.1867 113.944 11.76C114.17 11.3333 114.487 11.0067 114.894 10.78C115.307 10.5467 115.78 10.43 116.314 10.43C116.834 10.43 117.294 10.5433 117.694 10.77C118.094 10.9967 118.4 11.31 118.614 11.71C118.834 12.1033 118.944 12.55 118.944 13.05ZM118.004 12.86C118.004 12.5133 117.927 12.2167 117.774 11.97C117.62 11.7167 117.41 11.5267 117.144 11.4C116.884 11.2667 116.594 11.2 116.274 11.2C115.814 11.2 115.42 11.3467 115.094 11.64C114.774 11.9333 114.59 12.34 114.544 12.86H118.004ZM121.055 8.6V16H120.145V8.6H121.055ZM123.516 8.6V16H122.606V8.6H123.516ZM130.067 13.05C130.067 13.2233 130.057 13.4067 130.037 13.6H125.657C125.69 14.14 125.874 14.5633 126.207 14.87C126.547 15.17 126.957 15.32 127.437 15.32C127.83 15.32 128.157 15.23 128.417 15.05C128.684 14.8633 128.87 14.6167 128.977 14.31H129.957C129.81 14.8367 129.517 15.2667 129.077 15.6C128.637 15.9267 128.09 16.09 127.437 16.09C126.917 16.09 126.45 15.9733 126.037 15.74C125.63 15.5067 125.31 15.1767 125.077 14.75C124.844 14.3167 124.727 13.8167 124.727 13.25C124.727 12.6833 124.84 12.1867 125.067 11.76C125.294 11.3333 125.61 11.0067 126.017 10.78C126.43 10.5467 126.904 10.43 127.437 10.43C127.957 10.43 128.417 10.5433 128.817 10.77C129.217 10.9967 129.524 11.31 129.737 11.71C129.957 12.1033 130.067 12.55 130.067 13.05ZM129.127 12.86C129.127 12.5133 129.05 12.2167 128.897 11.97C128.744 11.7167 128.534 11.5267 128.267 11.4C128.007 11.2667 127.717 11.2 127.397 11.2C126.937 11.2 126.544 11.3467 126.217 11.64C125.897 11.9333 125.714 12.34 125.667 12.86H129.127ZM130.928 13.25C130.928 12.6833 131.041 12.19 131.268 11.77C131.495 11.3433 131.808 11.0133 132.208 10.78C132.615 10.5467 133.078 10.43 133.598 10.43C134.271 10.43 134.825 10.5933 135.258 10.92C135.698 11.2467 135.988 11.7 136.128 12.28H135.148C135.055 11.9467 134.871 11.6833 134.598 11.49C134.331 11.2967 133.998 11.2 133.598 11.2C133.078 11.2 132.658 11.38 132.338 11.74C132.018 12.0933 131.858 12.5967 131.858 13.25C131.858 13.91 132.018 14.42 132.338 14.78C132.658 15.14 133.078 15.32 133.598 15.32C133.998 15.32 134.331 15.2267 134.598 15.04C134.865 14.8533 135.048 14.5867 135.148 14.24H136.128C135.981 14.8 135.688 15.25 135.248 15.59C134.808 15.9233 134.258 16.09 133.598 16.09C133.078 16.09 132.615 15.9733 132.208 15.74C131.808 15.5067 131.495 15.1767 131.268 14.75C131.041 14.3233 130.928 13.8233 130.928 13.25ZM138.452 11.27V14.5C138.452 14.7667 138.509 14.9567 138.622 15.07C138.736 15.1767 138.932 15.23 139.212 15.23H139.882V16H139.062C138.556 16 138.176 15.8833 137.922 15.65C137.669 15.4167 137.542 15.0333 137.542 14.5V11.27H136.832V10.52H137.542V9.14H138.452V10.52H139.882V11.27H138.452ZM145.845 10.52V16H144.935V15.19C144.762 15.47 144.518 15.69 144.205 15.85C143.898 16.0033 143.558 16.08 143.185 16.08C142.758 16.08 142.375 15.9933 142.035 15.82C141.695 15.64 141.425 15.3733 141.225 15.02C141.032 14.6667 140.935 14.2367 140.935 13.73V10.52H141.835V13.61C141.835 14.15 141.972 14.5667 142.245 14.86C142.518 15.1467 142.892 15.29 143.365 15.29C143.852 15.29 144.235 15.14 144.515 14.84C144.795 14.54 144.935 14.1033 144.935 13.53V10.52H145.845ZM147.041 13.24C147.041 12.68 147.155 12.19 147.381 11.77C147.608 11.3433 147.918 11.0133 148.311 10.78C148.711 10.5467 149.155 10.43 149.641 10.43C150.121 10.43 150.538 10.5333 150.891 10.74C151.245 10.9467 151.508 11.2067 151.681 11.52V10.52H152.601V16H151.681V14.98C151.501 15.3 151.231 15.5667 150.871 15.78C150.518 15.9867 150.105 16.09 149.631 16.09C149.145 16.09 148.705 15.97 148.311 15.73C147.918 15.49 147.608 15.1533 147.381 14.72C147.155 14.2867 147.041 13.7933 147.041 13.24ZM151.681 13.25C151.681 12.8367 151.598 12.4767 151.431 12.17C151.265 11.8633 151.038 11.63 150.751 11.47C150.471 11.3033 150.161 11.22 149.821 11.22C149.481 11.22 149.171 11.3 148.891 11.46C148.611 11.62 148.388 11.8533 148.221 12.16C148.055 12.4667 147.971 12.8267 147.971 13.24C147.971 13.66 148.055 14.0267 148.221 14.34C148.388 14.6467 148.611 14.8833 148.891 15.05C149.171 15.21 149.481 15.29 149.821 15.29C150.161 15.29 150.471 15.21 150.751 15.05C151.038 14.8833 151.265 14.6467 151.431 14.34C151.598 14.0267 151.681 13.6633 151.681 13.25ZM155.049 8.6V16H154.139V8.6H155.049ZM163.926 11.07C163.926 11.65 163.726 12.1333 163.326 12.52C162.933 12.9 162.329 13.09 161.516 13.09H160.176V16H159.266V9.03H161.516C162.303 9.03 162.899 9.22 163.306 9.6C163.719 9.98 163.926 10.47 163.926 11.07ZM161.516 12.34C162.023 12.34 162.396 12.23 162.636 12.01C162.876 11.79 162.996 11.4767 162.996 11.07C162.996 10.21 162.503 9.78 161.516 9.78H160.176V12.34H161.516ZM165.967 11.41C166.127 11.0967 166.354 10.8533 166.647 10.68C166.947 10.5067 167.31 10.42 167.737 10.42V11.36H167.497C166.477 11.36 165.967 11.9133 165.967 13.02V16H165.057V10.52H165.967V11.41ZM171.178 16.09C170.664 16.09 170.198 15.9733 169.778 15.74C169.364 15.5067 169.038 15.1767 168.798 14.75C168.564 14.3167 168.448 13.8167 168.448 13.25C168.448 12.69 168.568 12.1967 168.808 11.77C169.054 11.3367 169.388 11.0067 169.808 10.78C170.228 10.5467 170.698 10.43 171.218 10.43C171.738 10.43 172.208 10.5467 172.628 10.78C173.048 11.0067 173.378 11.3333 173.618 11.76C173.864 12.1867 173.988 12.6833 173.988 13.25C173.988 13.8167 173.861 14.3167 173.608 14.75C173.361 15.1767 173.024 15.5067 172.598 15.74C172.171 15.9733 171.698 16.09 171.178 16.09ZM171.178 15.29C171.504 15.29 171.811 15.2133 172.098 15.06C172.384 14.9067 172.614 14.6767 172.788 14.37C172.968 14.0633 173.058 13.69 173.058 13.25C173.058 12.81 172.971 12.4367 172.798 12.13C172.624 11.8233 172.398 11.5967 172.118 11.45C171.838 11.2967 171.534 11.22 171.208 11.22C170.874 11.22 170.568 11.2967 170.288 11.45C170.014 11.5967 169.794 11.8233 169.628 12.13C169.461 12.4367 169.378 12.81 169.378 13.25C169.378 13.6967 169.458 14.0733 169.618 14.38C169.784 14.6867 170.004 14.9167 170.278 15.07C170.551 15.2167 170.851 15.29 171.178 15.29ZM176.094 11.53C176.274 11.2167 176.541 10.9567 176.894 10.75C177.254 10.5367 177.671 10.43 178.144 10.43C178.631 10.43 179.071 10.5467 179.464 10.78C179.864 11.0133 180.177 11.3433 180.404 11.77C180.631 12.19 180.744 12.68 180.744 13.24C180.744 13.7933 180.631 14.2867 180.404 14.72C180.177 15.1533 179.864 15.49 179.464 15.73C179.071 15.97 178.631 16.09 178.144 16.09C177.677 16.09 177.264 15.9867 176.904 15.78C176.551 15.5667 176.281 15.3033 176.094 14.99V18.6H175.184V10.52H176.094V11.53ZM179.814 13.24C179.814 12.8267 179.731 12.4667 179.564 12.16C179.397 11.8533 179.171 11.62 178.884 11.46C178.604 11.3 178.294 11.22 177.954 11.22C177.621 11.22 177.311 11.3033 177.024 11.47C176.744 11.63 176.517 11.8667 176.344 12.18C176.177 12.4867 176.094 12.8433 176.094 13.25C176.094 13.6633 176.177 14.0267 176.344 14.34C176.517 14.6467 176.744 14.8833 177.024 15.05C177.311 15.21 177.621 15.29 177.954 15.29C178.294 15.29 178.604 15.21 178.884 15.05C179.171 14.8833 179.397 14.6467 179.564 14.34C179.731 14.0267 179.814 13.66 179.814 13.24ZM186.942 13.05C186.942 13.2233 186.932 13.4067 186.912 13.6H182.532C182.565 14.14 182.749 14.5633 183.082 14.87C183.422 15.17 183.832 15.32 184.312 15.32C184.705 15.32 185.032 15.23 185.292 15.05C185.559 14.8633 185.745 14.6167 185.852 14.31H186.832C186.685 14.8367 186.392 15.2667 185.952 15.6C185.512 15.9267 184.965 16.09 184.312 16.09C183.792 16.09 183.325 15.9733 182.912 15.74C182.505 15.5067 182.185 15.1767 181.952 14.75C181.719 14.3167 181.602 13.8167 181.602 13.25C181.602 12.6833 181.715 12.1867 181.942 11.76C182.169 11.3333 182.485 11.0067 182.892 10.78C183.305 10.5467 183.779 10.43 184.312 10.43C184.832 10.43 185.292 10.5433 185.692 10.77C186.092 10.9967 186.399 11.31 186.612 11.71C186.832 12.1033 186.942 12.55 186.942 13.05ZM186.002 12.86C186.002 12.5133 185.925 12.2167 185.772 11.97C185.619 11.7167 185.409 11.5267 185.142 11.4C184.882 11.2667 184.592 11.2 184.272 11.2C183.812 11.2 183.419 11.3467 183.092 11.64C182.772 11.9333 182.589 12.34 182.542 12.86H186.002ZM189.053 11.41C189.213 11.0967 189.44 10.8533 189.733 10.68C190.033 10.5067 190.396 10.42 190.823 10.42V11.36H190.583C189.563 11.36 189.053 11.9133 189.053 13.02V16H188.143V10.52H189.053V11.41ZM192.984 11.27V14.5C192.984 14.7667 193.04 14.9567 193.154 15.07C193.267 15.1767 193.464 15.23 193.744 15.23H194.414V16H193.594C193.087 16 192.707 15.8833 192.454 15.65C192.2 15.4167 192.074 15.0333 192.074 14.5V11.27H191.364V10.52H192.074V9.14H192.984V10.52H194.414V11.27H192.984ZM200.236 10.52L196.936 18.58H195.996L197.076 15.94L194.866 10.52H195.876L197.596 14.96L199.296 10.52H200.236Z" fill="white" fill-opacity="0.7"/>
</svg>
