<svg width="38" height="38" viewBox="0 0 38 38" fill="none" xmlns="http://www.w3.org/2000/svg">
<circle cx="19" cy="19" r="17.75" fill="#005263" stroke="white" stroke-width="1.5"/>
<path d="M15.6667 11H13.6667C12.9594 11 12.2811 11.281 11.781 11.781C11.281 12.2811 11 12.9594 11 13.6667V15.6667C11 16.3739 11.281 17.0522 11.781 17.5523C12.2811 18.0524 12.9594 18.3333 13.6667 18.3333H15.6667C16.3739 18.3333 17.0522 18.0524 17.5523 17.5523C18.0524 17.0522 18.3333 16.3739 18.3333 15.6667V13.6667C18.3333 12.9594 18.0524 12.2811 17.5523 11.781C17.0522 11.281 16.3739 11 15.6667 11ZM17 15.6667C17 16.0203 16.8595 16.3594 16.6095 16.6095C16.3594 16.8595 16.0203 17 15.6667 17H13.6667C13.313 17 12.9739 16.8595 12.7239 16.6095C12.4738 16.3594 12.3333 16.0203 12.3333 15.6667V13.6667C12.3333 13.313 12.4738 12.9739 12.7239 12.7239C12.9739 12.4738 13.313 12.3333 13.6667 12.3333H15.6667C16.0203 12.3333 16.3594 12.4738 16.6095 12.7239C16.8595 12.9739 17 13.313 17 13.6667V15.6667Z" fill="white"/>
<path d="M24.3333 11H22.3333C21.6261 11 20.9478 11.281 20.4477 11.781C19.9476 12.2811 19.6667 12.9594 19.6667 13.6667V15.6667C19.6667 16.3739 19.9476 17.0522 20.4477 17.5523C20.9478 18.0524 21.6261 18.3333 22.3333 18.3333H24.3333C25.0406 18.3333 25.7189 18.0524 26.219 17.5523C26.719 17.0522 27 16.3739 27 15.6667V13.6667C27 12.9594 26.719 12.2811 26.219 11.781C25.7189 11.281 25.0406 11 24.3333 11ZM25.6667 15.6667C25.6667 16.0203 25.5262 16.3594 25.2761 16.6095C25.0261 16.8595 24.687 17 24.3333 17H22.3333C21.9797 17 21.6406 16.8595 21.3905 16.6095C21.1405 16.3594 21 16.0203 21 15.6667V13.6667C21 13.313 21.1405 12.9739 21.3905 12.7239C21.6406 12.4738 21.9797 12.3333 22.3333 12.3333H24.3333C24.687 12.3333 25.0261 12.4738 25.2761 12.7239C25.5262 12.9739 25.6667 13.313 25.6667 13.6667V15.6667Z" fill="white"/>
<path d="M15.6667 19.6667H13.6667C12.9594 19.6667 12.2811 19.9476 11.781 20.4477C11.281 20.9478 11 21.6261 11 22.3333V24.3333C11 25.0406 11.281 25.7189 11.781 26.219C12.2811 26.719 12.9594 27 13.6667 27H15.6667C16.3739 27 17.0522 26.719 17.5523 26.219C18.0524 25.7189 18.3333 25.0406 18.3333 24.3333V22.3333C18.3333 21.6261 18.0524 20.9478 17.5523 20.4477C17.0522 19.9476 16.3739 19.6667 15.6667 19.6667ZM17 24.3333C17 24.687 16.8595 25.0261 16.6095 25.2761C16.3594 25.5262 16.0203 25.6667 15.6667 25.6667H13.6667C13.313 25.6667 12.9739 25.5262 12.7239 25.2761C12.4738 25.0261 12.3333 24.687 12.3333 24.3333V22.3333C12.3333 21.9797 12.4738 21.6406 12.7239 21.3905C12.9739 21.1405 13.313 21 13.6667 21H15.6667C16.0203 21 16.3594 21.1405 16.6095 21.3905C16.8595 21.6406 17 21.9797 17 22.3333V24.3333Z" fill="white"/>
<path d="M24.3333 19.6667H22.3333C21.6261 19.6667 20.9478 19.9476 20.4477 20.4477C19.9476 20.9478 19.6667 21.6261 19.6667 22.3333V24.3333C19.6667 25.0406 19.9476 25.7189 20.4477 26.219C20.9478 26.719 21.6261 27 22.3333 27H24.3333C25.0406 27 25.7189 26.719 26.219 26.219C26.719 25.7189 27 25.0406 27 24.3333V22.3333C27 21.6261 26.719 20.9478 26.219 20.4477C25.7189 19.9476 25.0406 19.6667 24.3333 19.6667ZM25.6667 24.3333C25.6667 24.687 25.5262 25.0261 25.2761 25.2761C25.0261 25.5262 24.687 25.6667 24.3333 25.6667H22.3333C21.9797 25.6667 21.6406 25.5262 21.3905 25.2761C21.1405 25.0261 21 24.687 21 24.3333V22.3333C21 21.9797 21.1405 21.6406 21.3905 21.3905C21.6406 21.1405 21.9797 21 22.3333 21H24.3333C24.687 21 25.0261 21.1405 25.2761 21.3905C25.5262 21.6406 25.6667 21.9797 25.6667 22.3333V24.3333Z" fill="white"/>
</svg>
